<svg width="20" height="80" viewBox="0 0 20 80" fill="none" xmlns="http://www.w3.org/2000/svg">
<path fill-rule="evenodd" clip-rule="evenodd" d="M10 20C15.5228 20 20 15.5228 20 10C20 4.47715 15.5228 0 10 0C4.47715 0 0 4.47715 0 10C0 15.5228 4.47715 20 10 20ZM10 16C13.3137 16 16 13.3137 16 10C16 6.68629 13.3137 4 10 4C6.68629 4 4 6.68629 4 10C4 13.3137 6.68629 16 10 16Z" fill="#7043BA"/>
<path fill-rule="evenodd" clip-rule="evenodd" d="M10 80C15.5228 80 20 75.5229 20 70C20 64.4771 15.5228 60 10 60C4.47715 60 0 64.4771 0 70C0 75.5229 4.47715 80 10 80ZM10 76C13.3137 76 16 73.3137 16 70C16 66.6863 13.3137 64 10 64C6.68629 64 4 66.6863 4 70C4 73.3137 6.68629 76 10 76Z" fill="#7043BA"/>
<path fill-rule="evenodd" clip-rule="evenodd" d="M20 40C20 45.5228 15.5228 50 10 50C4.47715 50 0 45.5228 0 40C0 34.4772 4.47715 30 10 30C15.5228 30 20 34.4772 20 40ZM16 40C16 43.3137 13.3137 46 10 46C6.68629 46 4 43.3137 4 40C4 36.6863 6.68629 34 10 34C13.3137 34 16 36.6863 16 40Z" fill="#7043BA"/>
</svg>
