<svg width="58" height="84" viewBox="0 0 58 84" fill="none" xmlns="http://www.w3.org/2000/svg">
<path d="M17.1685 2.60414L16.3342 0.814874L17.1685 2.60414C20.3853 1.10411 24.2091 2.49586 25.7091 5.71267L25.7091 5.7127L31.0511 17.1685C32.5511 20.3853 31.1593 24.2091 27.9425 25.7091L23.9106 27.5892L22.098 28.4345L22.9432 30.2471L33.7359 53.392L34.5811 55.2046L36.3937 54.3594L40.7633 52.3218L39.9181 50.5092L40.7633 52.3218C43.9801 50.8218 47.8039 52.2135 49.3039 55.4303L49.3039 55.4304L54.6459 66.8862C56.1459 70.103 54.7541 73.9268 51.5373 75.4268L47.1678 77.4644L45.3555 78.3095L45.4036 78.4127C45.2255 78.4684 45.0469 78.5205 44.868 78.569L44.7024 78.614L44.5468 78.6865L40.0815 80.7687C36.8647 82.2687 33.0409 80.877 31.5409 77.6602L29.9865 74.3268L29.8718 74.0808L29.6957 73.8743C28.8468 72.8788 28.1152 71.7521 27.5331 70.5039L25.7205 71.3491L27.5331 70.5039L6.16546 24.6807C6.16546 24.6807 6.16546 24.6807 6.16545 24.6807C5.80632 23.9105 5.51935 23.1267 5.30128 22.3365L5.25673 22.1751L5.18597 22.0234L2.60415 16.4867L0.796817 17.3295L2.60415 16.4867C1.1041 13.2699 2.49587 9.44612 5.71271 7.94606C5.71271 7.94606 5.71272 7.94606 5.71272 7.94605L17.1685 2.60414Z" stroke="#7043BA" stroke-width="4"/>
</svg>
