<svg width="72" height="39" viewBox="0 0 72 39" fill="none" xmlns="http://www.w3.org/2000/svg">
<path d="M27.8556 17.8321C29.0506 18.623 29.0506 20.377 27.8556 21.1679L5.10373 36.2243C3.77418 37.1041 2 36.1507 2 34.5564V4.44361C2 2.8493 3.77418 1.8959 5.10373 2.77575L27.8556 17.8321ZM33.151 10.5951C31.2617 9.28713 32.7085 6.34677 34.8975 7.0454L67.9519 17.5947C69.8078 18.187 69.8078 20.813 67.9519 21.4053L34.8975 31.9546C32.7085 32.6532 31.2617 29.7129 33.151 28.4049L38.888 24.4332C42.3343 22.0472 42.3343 16.9528 38.888 14.5668L33.151 10.5951Z" fill="#7043BA" stroke="#F5F5F5" stroke-width="4"/>
</svg>
