<svg width="100" height="100" viewBox="0 0 100 100" fill="none" xmlns="http://www.w3.org/2000/svg">
<mask id="path-1-inside-1_27_302" fill="white">
<path fill-rule="evenodd" clip-rule="evenodd" d="M40 96C40 98.2091 41.7909 100 44 100H56C58.2091 100 60 98.2091 60 96V86.5335C60 84.7639 61.1724 83.2265 62.819 82.578C63.2059 82.4257 63.5895 82.2666 63.9696 82.101C65.5925 81.3937 67.5095 81.6515 68.7613 82.9033L75.4558 89.5979C77.0179 91.16 79.5506 91.16 81.1127 89.5979L89.598 81.1126C91.1601 79.5505 91.1601 77.0178 89.598 75.4557L82.9034 68.7612C81.6516 67.5093 81.3938 65.5924 82.101 63.9694C82.2666 63.5894 82.4257 63.2059 82.578 62.819C83.2265 61.1724 84.7639 60 86.5335 60H96C98.2091 60 100 58.2091 100 56V44C100 41.7909 98.2091 40 96 40H86.5335C84.7639 40 83.2265 38.8276 82.578 37.181C82.4257 36.7941 82.2666 36.4105 82.101 36.0304C81.3937 34.4075 81.6515 32.4905 82.9033 31.2387L89.598 24.5441C91.1601 22.982 91.1601 20.4493 89.598 18.8872L81.1127 10.4019C79.5506 8.83983 77.0179 8.83983 75.4558 10.4019L68.7612 17.0966C67.5093 18.3484 65.5924 18.6062 63.9694 17.899C63.5894 17.7334 63.2059 17.5743 62.819 17.4219C61.1724 16.7735 60 15.2361 60 13.4665V4C60 1.79086 58.2091 0 56 0H44C41.7909 0 40 1.79086 40 4V13.4665C40 15.2361 38.8276 16.7735 37.181 17.4219C36.7941 17.5743 36.4106 17.7334 36.0306 17.899C34.4076 18.6062 32.4907 18.3484 31.2388 17.0966L24.5442 10.4019C22.9821 8.83982 20.4494 8.83982 18.8873 10.4019L10.402 18.8872C8.83992 20.4493 8.83992 22.982 10.402 24.544L17.0967 31.2387C18.3485 32.4905 18.6063 34.4075 17.899 36.0304C17.7334 36.4105 17.5743 36.7941 17.4219 37.181C16.7735 38.8276 15.2361 40 13.4665 40H4C1.79086 40 0 41.7909 0 44V56C0 58.2091 1.79086 60 4 60H13.4665C15.2361 60 16.7735 61.1724 17.4219 62.819C17.5743 63.2059 17.7334 63.5894 17.899 63.9694C18.6062 65.5924 18.3484 67.5093 17.0966 68.7612L10.402 75.4557C8.83992 77.0179 8.83992 79.5505 10.402 81.1126L18.8873 89.5979C20.4494 91.16 22.9821 91.16 24.5442 89.5979L31.2387 82.9033C32.4905 81.6515 34.4075 81.3937 36.0304 82.101C36.4105 82.2666 36.7941 82.4257 37.181 82.578C38.8276 83.2265 40 84.7639 40 86.5335V96ZM50 70C61.0457 70 70 61.0457 70 50C70 38.9543 61.0457 30 50 30C38.9543 30 30 38.9543 30 50C30 61.0457 38.9543 70 50 70Z"/>
</mask>
<path fill-rule="evenodd" clip-rule="evenodd" d="M40 96C40 98.2091 41.7909 100 44 100H56C58.2091 100 60 98.2091 60 96V86.5335C60 84.7639 61.1724 83.2265 62.819 82.578C63.2059 82.4257 63.5895 82.2666 63.9696 82.101C65.5925 81.3937 67.5095 81.6515 68.7613 82.9033L75.4558 89.5979C77.0179 91.16 79.5506 91.16 81.1127 89.5979L89.598 81.1126C91.1601 79.5505 91.1601 77.0178 89.598 75.4557L82.9034 68.7612C81.6516 67.5093 81.3938 65.5924 82.101 63.9694C82.2666 63.5894 82.4257 63.2059 82.578 62.819C83.2265 61.1724 84.7639 60 86.5335 60H96C98.2091 60 100 58.2091 100 56V44C100 41.7909 98.2091 40 96 40H86.5335C84.7639 40 83.2265 38.8276 82.578 37.181C82.4257 36.7941 82.2666 36.4105 82.101 36.0304C81.3937 34.4075 81.6515 32.4905 82.9033 31.2387L89.598 24.5441C91.1601 22.982 91.1601 20.4493 89.598 18.8872L81.1127 10.4019C79.5506 8.83983 77.0179 8.83983 75.4558 10.4019L68.7612 17.0966C67.5093 18.3484 65.5924 18.6062 63.9694 17.899C63.5894 17.7334 63.2059 17.5743 62.819 17.4219C61.1724 16.7735 60 15.2361 60 13.4665V4C60 1.79086 58.2091 0 56 0H44C41.7909 0 40 1.79086 40 4V13.4665C40 15.2361 38.8276 16.7735 37.181 17.4219C36.7941 17.5743 36.4106 17.7334 36.0306 17.899C34.4076 18.6062 32.4907 18.3484 31.2388 17.0966L24.5442 10.4019C22.9821 8.83982 20.4494 8.83982 18.8873 10.4019L10.402 18.8872C8.83992 20.4493 8.83992 22.982 10.402 24.544L17.0967 31.2387C18.3485 32.4905 18.6063 34.4075 17.899 36.0304C17.7334 36.4105 17.5743 36.7941 17.4219 37.181C16.7735 38.8276 15.2361 40 13.4665 40H4C1.79086 40 0 41.7909 0 44V56C0 58.2091 1.79086 60 4 60H13.4665C15.2361 60 16.7735 61.1724 17.4219 62.819C17.5743 63.2059 17.7334 63.5894 17.899 63.9694C18.6062 65.5924 18.3484 67.5093 17.0966 68.7612L10.402 75.4557C8.83992 77.0179 8.83992 79.5505 10.402 81.1126L18.8873 89.5979C20.4494 91.16 22.9821 91.16 24.5442 89.5979L31.2387 82.9033C32.4905 81.6515 34.4075 81.3937 36.0304 82.101C36.4105 82.2666 36.7941 82.4257 37.181 82.578C38.8276 83.2265 40 84.7639 40 86.5335V96ZM50 70C61.0457 70 70 61.0457 70 50C70 38.9543 61.0457 30 50 30C38.9543 30 30 38.9543 30 50C30 61.0457 38.9543 70 50 70Z" fill="#F5F5F5"/>
<path d="M62.819 82.578L62.0862 80.7171L62.0862 80.7171L62.819 82.578ZM63.9696 82.101L63.1706 80.2675L63.1706 80.2675L63.9696 82.101ZM82.101 63.9694L83.9345 64.7684V64.7684L82.101 63.9694ZM82.578 62.819L80.7171 62.0862V62.0862L82.578 62.819ZM82.578 37.181L80.7171 37.9138L80.7171 37.9139L82.578 37.181ZM82.101 36.0304L83.9344 35.2314L82.101 36.0304ZM82.9033 31.2387L81.4891 29.8245V29.8245L82.9033 31.2387ZM89.598 24.5441L88.1838 23.1298L88.1838 23.1299L89.598 24.5441ZM89.598 18.8872L88.1838 20.3014L88.1838 20.3014L89.598 18.8872ZM81.1127 10.4019L82.5269 8.98772L82.5269 8.98771L81.1127 10.4019ZM75.4558 10.4019L74.0416 8.98771L74.0416 8.98771L75.4558 10.4019ZM68.7612 17.0966L70.1754 18.5108V18.5108L68.7612 17.0966ZM63.9694 17.899L63.1705 19.7324L63.1705 19.7324L63.9694 17.899ZM62.819 17.4219L62.0862 19.2829L62.0862 19.2829L62.819 17.4219ZM37.181 17.4219L36.4482 15.561L36.4482 15.561L37.181 17.4219ZM36.0306 17.899L35.2316 16.0655L35.2316 16.0655L36.0306 17.899ZM31.2388 17.0966L29.8246 18.5108V18.5108L31.2388 17.0966ZM24.5442 10.4019L23.1299 11.8161V11.8161L24.5442 10.4019ZM18.8873 10.4019L20.3015 11.8161L20.3015 11.8161L18.8873 10.4019ZM10.402 24.544L11.8162 23.1298L10.402 24.544ZM17.0967 31.2387L15.6825 32.6529H15.6825L17.0967 31.2387ZM17.899 36.0304L19.7325 36.8294L19.7325 36.8294L17.899 36.0304ZM17.4219 37.181L15.561 36.4482V36.4482L17.4219 37.181ZM17.4219 62.819L19.2829 62.0862L19.2829 62.0862L17.4219 62.819ZM17.899 63.9694L16.0655 64.7684H16.0655L17.899 63.9694ZM17.0966 68.7612L15.6824 67.3469H15.6824L17.0966 68.7612ZM10.402 75.4557L8.98781 74.0415L8.9878 74.0415L10.402 75.4557ZM10.402 81.1126L8.9878 82.5268L8.98781 82.5268L10.402 81.1126ZM18.8873 89.5979L20.3015 88.1837L20.3015 88.1837L18.8873 89.5979ZM24.5442 89.5979L25.9584 91.0121L24.5442 89.5979ZM31.2387 82.9033L29.8245 81.4891H29.8245L31.2387 82.9033ZM36.0304 82.101L35.2314 83.9344L36.0304 82.101ZM37.181 82.578L37.9139 80.7171L37.9138 80.7171L37.181 82.578ZM44 98C42.8954 98 42 97.1046 42 96H38C38 99.3137 40.6863 102 44 102V98ZM56 98H44V102H56V98ZM58 96C58 97.1046 57.1046 98 56 98V102C59.3137 102 62 99.3137 62 96H58ZM58 86.5335V96H62V86.5335H58ZM62.0862 80.7171C59.7688 81.6297 58 83.8458 58 86.5335H62C62 85.682 62.576 84.8232 63.5518 84.439L62.0862 80.7171ZM63.1706 80.2675C62.8123 80.4236 62.4508 80.5735 62.0862 80.7171L63.5518 84.439C63.961 84.2778 64.3667 84.1096 64.7686 83.9344L63.1706 80.2675ZM70.1755 81.4891C68.2743 79.5879 65.4551 79.2719 63.1706 80.2675L64.7686 83.9344C65.7299 83.5155 66.7447 83.7151 67.3471 84.3175L70.1755 81.4891ZM76.8701 88.1837L70.1755 81.4891L67.3471 84.3175L74.0416 91.0121L76.8701 88.1837ZM79.6985 88.1837C78.9174 88.9647 77.6511 88.9647 76.8701 88.1837L74.0416 91.0121C76.3848 93.3552 80.1838 93.3552 82.5269 91.0121L79.6985 88.1837ZM88.1838 79.6984L79.6985 88.1837L82.5269 91.0121L91.0122 82.5268L88.1838 79.6984ZM88.1838 76.8699C88.9648 77.651 88.9648 78.9173 88.1838 79.6984L91.0122 82.5268C93.3553 80.1837 93.3553 76.3847 91.0122 74.0415L88.1838 76.8699ZM81.4892 70.1754L88.1838 76.8699L91.0122 74.0415L84.3176 67.3469L81.4892 70.1754ZM80.2676 63.1704C79.272 65.455 79.588 68.2741 81.4892 70.1754L84.3176 67.3469C83.7152 66.7445 83.5156 65.7298 83.9345 64.7684L80.2676 63.1704ZM80.7171 62.0862C80.5736 62.4508 80.4236 62.8123 80.2676 63.1705L83.9345 64.7684C84.1096 64.3666 84.2778 63.961 84.439 63.5518L80.7171 62.0862ZM86.5335 58C83.8458 58 81.6297 59.7688 80.7171 62.0862L84.439 63.5518C84.8232 62.576 85.6819 62 86.5335 62V58ZM96 58H86.5335V62H96V58ZM98 56C98 57.1046 97.1046 58 96 58V62C99.3137 62 102 59.3137 102 56H98ZM98 44V56H102V44H98ZM96 42C97.1046 42 98 42.8954 98 44H102C102 40.6863 99.3137 38 96 38V42ZM86.5335 42H96V38H86.5335V42ZM80.7171 37.9139C81.6297 40.2312 83.8458 42 86.5335 42V38C85.6819 38 84.8232 37.424 84.439 36.4482L80.7171 37.9139ZM80.2675 36.8294C80.4236 37.1877 80.5735 37.5492 80.7171 37.9138L84.439 36.4482C84.2778 36.039 84.1096 35.6334 83.9344 35.2314L80.2675 36.8294ZM81.4891 29.8245C79.5879 31.7257 79.2719 34.5449 80.2675 36.8294L83.9344 35.2314C83.5155 34.2701 83.7151 33.2553 84.3175 32.6529L81.4891 29.8245ZM88.1838 23.1299L81.4891 29.8245L84.3175 32.6529L91.0122 25.9583L88.1838 23.1299ZM88.1838 20.3014C88.9648 21.0825 88.9648 22.3488 88.1838 23.1298L91.0122 25.9583C93.3553 23.6151 93.3553 19.8161 91.0122 17.473L88.1838 20.3014ZM79.6985 11.8161L88.1838 20.3014L91.0122 17.473L82.5269 8.98772L79.6985 11.8161ZM76.87 11.8161C77.6511 11.0351 78.9174 11.0351 79.6985 11.8161L82.5269 8.98771C80.1838 6.64457 76.3848 6.64457 74.0416 8.98771L76.87 11.8161ZM70.1754 18.5108L76.8701 11.8161L74.0416 8.98771L67.3469 15.6824L70.1754 18.5108ZM63.1705 19.7324C65.455 20.728 68.2741 20.4121 70.1754 18.5108L67.3469 15.6824C66.7445 16.2848 65.7298 16.4844 64.7684 16.0655L63.1705 19.7324ZM62.0862 19.2829C62.4508 19.4265 62.8123 19.5764 63.1705 19.7324L64.7684 16.0655C64.3666 15.8904 63.961 15.7222 63.5518 15.561L62.0862 19.2829ZM58 13.4665C58 16.1542 59.7688 18.3703 62.0862 19.2829L63.5518 15.561C62.576 15.1768 62 14.318 62 13.4665H58ZM58 4V13.4665H62V4H58ZM56 2C57.1046 2 58 2.89543 58 4H62C62 0.68629 59.3137 -2 56 -2V2ZM44 2H56V-2H44V2ZM42 4C42 2.89543 42.8954 2 44 2V-2C40.6863 -2 38 0.686292 38 4H42ZM42 13.4665V4H38V13.4665H42ZM37.9138 19.2829C40.2312 18.3703 42 16.1542 42 13.4665H38C38 14.318 37.424 15.1768 36.4482 15.561L37.9138 19.2829ZM36.8295 19.7324C37.1877 19.5764 37.5492 19.4264 37.9139 19.2828L36.4482 15.561C36.039 15.7222 35.6334 15.8904 35.2316 16.0655L36.8295 19.7324ZM29.8246 18.5108C31.7259 20.412 34.545 20.728 36.8296 19.7324L35.2316 16.0655C34.2702 16.4844 33.2555 16.2848 32.6531 15.6824L29.8246 18.5108ZM23.1299 11.8161L29.8246 18.5108L32.6531 15.6824L25.9584 8.9877L23.1299 11.8161ZM20.3015 11.8161C21.0826 11.0351 22.3489 11.0351 23.1299 11.8161L25.9584 8.9877C23.6152 6.64456 19.8162 6.64455 17.4731 8.9877L20.3015 11.8161ZM11.8162 20.3014L20.3015 11.8161L17.4731 8.9877L8.98781 17.473L11.8162 20.3014ZM11.8162 23.1298C11.0352 22.3488 11.0352 21.0825 11.8162 20.3014L8.98781 17.473C6.64466 19.8161 6.64466 23.6151 8.98781 25.9583L11.8162 23.1298ZM18.5109 29.8245L11.8162 23.1298L8.98781 25.9583L15.6825 32.6529L18.5109 29.8245ZM19.7325 36.8294C20.7281 34.5449 20.4121 31.7257 18.5109 29.8245L15.6825 32.6529C16.2849 33.2553 16.4845 34.2701 16.0656 35.2314L19.7325 36.8294ZM19.2829 37.9138C19.4265 37.5492 19.5764 37.1876 19.7325 36.8294L16.0656 35.2314C15.8904 35.6333 15.7222 36.039 15.561 36.4482L19.2829 37.9138ZM13.4665 42C16.1542 42 18.3703 40.2312 19.2829 37.9138L15.561 36.4482C15.1768 37.424 14.318 38 13.4665 38V42ZM4 42H13.4665V38H4V42ZM2 44C2 42.8954 2.89543 42 4 42V38C0.68629 38 -2 40.6863 -2 44H2ZM2 56V44H-2V56H2ZM4 58C2.89543 58 2 57.1046 2 56H-2C-2 59.3137 0.686292 62 4 62V58ZM13.4665 58H4V62H13.4665V58ZM19.2829 62.0862C18.3703 59.7688 16.1542 58 13.4665 58V62C14.318 62 15.1768 62.576 15.561 63.5518L19.2829 62.0862ZM19.7324 63.1705C19.5764 62.8123 19.4265 62.4508 19.2829 62.0862L15.561 63.5518C15.7222 63.961 15.8904 64.3666 16.0655 64.7684L19.7324 63.1705ZM18.5108 70.1754C20.4121 68.2741 20.728 65.455 19.7324 63.1705L16.0655 64.7684C16.4844 65.7298 16.2848 66.7445 15.6824 67.3469L18.5108 70.1754ZM11.8162 76.87L18.5108 70.1754L15.6824 67.3469L8.98781 74.0415L11.8162 76.87ZM11.8162 79.6984C11.0352 78.9173 11.0352 77.651 11.8162 76.87L8.9878 74.0415C6.64466 76.3847 6.64466 80.1837 8.9878 82.5268L11.8162 79.6984ZM20.3015 88.1837L11.8162 79.6984L8.98781 82.5268L17.4731 91.0121L20.3015 88.1837ZM23.1299 88.1837C22.3489 88.9647 21.0826 88.9647 20.3015 88.1837L17.4731 91.0121C19.8162 93.3553 23.6152 93.3552 25.9584 91.0121L23.1299 88.1837ZM29.8245 81.4891L23.1299 88.1837L25.9584 91.0121L32.6529 84.3175L29.8245 81.4891ZM36.8294 80.2675C34.5449 79.2719 31.7257 79.5879 29.8245 81.4891L32.6529 84.3175C33.2553 83.7151 34.2701 83.5155 35.2314 83.9344L36.8294 80.2675ZM37.9138 80.7171C37.5492 80.5735 37.1877 80.4236 36.8294 80.2675L35.2314 83.9344C35.6334 84.1096 36.039 84.2778 36.4482 84.439L37.9138 80.7171ZM42 86.5335C42 83.8458 40.2312 81.6297 37.9139 80.7171L36.4482 84.439C37.424 84.8232 38 85.6819 38 86.5335H42ZM42 96V86.5335H38V96H42ZM68 50C68 59.9411 59.9411 68 50 68V72C62.1503 72 72 62.1503 72 50H68ZM50 32C59.9411 32 68 40.0589 68 50H72C72 37.8497 62.1503 28 50 28V32ZM32 50C32 40.0589 40.0589 32 50 32V28C37.8497 28 28 37.8497 28 50H32ZM50 68C40.0589 68 32 59.9411 32 50H28C28 62.1503 37.8497 72 50 72V68Z" fill="#1E1729" mask="url(#path-1-inside-1_27_302)"/>
</svg>
