<svg width="192" height="192" viewBox="0 0 192 192" fill="none" xmlns="http://www.w3.org/2000/svg">
<mask id="path-1-outside-1_116_9" maskUnits="userSpaceOnUse" x="44" y="41.1626" width="104" height="110" fill="black">
<rect fill="white" x="44" y="41.1626" width="104" height="110"/>
<path fill-rule="evenodd" clip-rule="evenodd" d="M78.6651 63.2352L94.4507 43.8978C95.2509 42.9175 96.7491 42.9175 97.5493 43.8978L113.335 63.2352C114.401 64.5414 113.472 66.4999 111.786 66.4999H106C104.895 66.4999 104 67.3954 104 68.4999V120C104 121.104 103.105 122 102 122H90C88.8954 122 88 121.104 88 120V68.4999C88 67.3954 87.1046 66.4999 86 66.4999H80.2144C78.5282 66.4999 77.5988 64.5414 78.6651 63.2352ZM50 137H142C144.209 137 146 138.791 146 141V144.5C146 146.709 144.209 148.5 142 148.5H50C47.7909 148.5 46 146.709 46 144.5V141C46 138.791 47.7909 137 50 137Z"/>
</mask>
<path fill-rule="evenodd" clip-rule="evenodd" d="M78.6651 63.2352L94.4507 43.8978C95.2509 42.9175 96.7491 42.9175 97.5493 43.8978L113.335 63.2352C114.401 64.5414 113.472 66.4999 111.786 66.4999H106C104.895 66.4999 104 67.3954 104 68.4999V120C104 121.104 103.105 122 102 122H90C88.8954 122 88 121.104 88 120V68.4999C88 67.3954 87.1046 66.4999 86 66.4999H80.2144C78.5282 66.4999 77.5988 64.5414 78.6651 63.2352ZM50 137H142C144.209 137 146 138.791 146 141V144.5C146 146.709 144.209 148.5 142 148.5H50C47.7909 148.5 46 146.709 46 144.5V141C46 138.791 47.7909 137 50 137Z" fill="#7043BA"/>
<path d="M94.4507 43.8978L92.9014 42.6331L92.9014 42.6331L94.4507 43.8978ZM78.6651 63.2352L77.1158 61.9704L77.1158 61.9704L78.6651 63.2352ZM97.5493 43.8978L99.0986 42.6331L99.0986 42.6331L97.5493 43.8978ZM113.335 63.2352L114.884 61.9704L114.884 61.9704L113.335 63.2352ZM92.9014 42.6331L77.1158 61.9704L80.2144 64.4999L96 45.1626L92.9014 42.6331ZM99.0986 42.6331C97.4981 40.6724 94.5019 40.6724 92.9014 42.6331L96 45.1626H96L99.0986 42.6331ZM114.884 61.9704L99.0986 42.6331L96 45.1626L111.786 64.4999L114.884 61.9704ZM111.786 68.4999C115.158 68.4999 117.017 64.5829 114.884 61.9704L111.786 64.4999L111.786 64.4999V68.4999ZM106 68.4999H111.786V64.4999H106V68.4999ZM106 68.4999V64.4999C103.791 64.4999 102 66.2908 102 68.4999H106ZM106 120V68.4999H102V120H106ZM102 124C104.209 124 106 122.209 106 120H102V124ZM90 124H102V120H90V124ZM86 120C86 122.209 87.7909 124 90 124V120H86ZM86 68.4999V120H90V68.4999H86ZM86 68.4999V68.4999H90C90 66.2908 88.2091 64.4999 86 64.4999V68.4999ZM80.2144 68.4999H86V64.4999H80.2144V68.4999ZM77.1158 61.9704C74.9831 64.5829 76.842 68.4999 80.2144 68.4999V64.4999L80.2144 64.4999L77.1158 61.9704ZM142 135H50V139H142V135ZM148 141C148 137.686 145.314 135 142 135V139C143.105 139 144 139.895 144 141H148ZM148 144.5V141H144V144.5H148ZM142 150.5C145.314 150.5 148 147.814 148 144.5H144C144 145.604 143.105 146.5 142 146.5V150.5ZM50 150.5H142V146.5H50V150.5ZM44 144.5C44 147.814 46.6863 150.5 50 150.5V146.5C48.8954 146.5 48 145.604 48 144.5H44ZM44 141V144.5H48V141H44ZM50 135C46.6863 135 44 137.686 44 141H48C48 139.895 48.8954 139 50 139V135Z" fill="#7043BA" mask="url(#path-1-outside-1_116_9)"/>
<mask id="path-3-outside-2_116_9" maskUnits="userSpaceOnUse" x="0" y="0" width="192" height="192" fill="black">
<rect fill="white" width="192" height="192"/>
<path fill-rule="evenodd" clip-rule="evenodd" d="M96 190C147.915 190 190 147.915 190 96C190 44.0852 147.915 2 96 2C44.0852 2 2 44.0852 2 96C2 147.915 44.0852 190 96 190ZM96 175C139.63 175 175 139.63 175 96C175 52.3695 139.63 17 96 17C52.3695 17 17 52.3695 17 96C17 139.63 52.3695 175 96 175Z"/>
</mask>
<path fill-rule="evenodd" clip-rule="evenodd" d="M96 190C147.915 190 190 147.915 190 96C190 44.0852 147.915 2 96 2C44.0852 2 2 44.0852 2 96C2 147.915 44.0852 190 96 190ZM96 175C139.63 175 175 139.63 175 96C175 52.3695 139.63 17 96 17C52.3695 17 17 52.3695 17 96C17 139.63 52.3695 175 96 175Z" fill="#7043BA"/>
<path d="M188 96C188 146.81 146.81 188 96 188V192C149.019 192 192 149.019 192 96H188ZM96 4C146.81 4 188 45.1898 188 96H192C192 42.9807 149.019 0 96 0V4ZM4 96C4 45.1898 45.1898 4 96 4V0C42.9807 0 0 42.9807 0 96H4ZM96 188C45.1898 188 4 146.81 4 96H0C0 149.019 42.9807 192 96 192V188ZM173 96C173 138.526 138.526 173 96 173V177C140.735 177 177 140.735 177 96H173ZM96 19C138.526 19 173 53.4741 173 96H177C177 51.2649 140.735 15 96 15V19ZM19 96C19 53.4741 53.4741 19 96 19V15C51.2649 15 15 51.2649 15 96H19ZM96 173C53.4741 173 19 138.526 19 96H15C15 140.735 51.2649 177 96 177V173Z" fill="#7043BA" mask="url(#path-3-outside-2_116_9)"/>
</svg>
