<svg width="80" height="80" viewBox="0 0 80 80" fill="none" xmlns="http://www.w3.org/2000/svg">
<path d="M55 21C55 29.2843 48.2843 36 40 36C31.7157 36 25 29.2843 25 21C25 12.7157 31.7157 6 40 6C48.2843 6 55 12.7157 55 21Z" fill="#7043BA"/>
<path d="M40 38C26.7845 38 15.5649 46.5452 11.565 58.4116C17.9182 67.2465 28.2872 73 40 73C51.7128 73 62.0818 67.2465 68.435 58.4116C64.4351 46.5452 53.2155 38 40 38Z" fill="#7043BA"/>
<path fill-rule="evenodd" clip-rule="evenodd" d="M40 80C62.0914 80 80 62.0914 80 40C80 17.9086 62.0914 0 40 0C17.9086 0 0 17.9086 0 40C0 62.0914 17.9086 80 40 80ZM40 76C59.8823 76 76 59.8823 76 40C76 20.1177 59.8823 4 40 4C20.1177 4 4 20.1177 4 40C4 59.8823 20.1177 76 40 76Z" fill="#7043BA"/>
</svg>
