<svg width="102" height="102" viewBox="0 0 102 102" fill="none" xmlns="http://www.w3.org/2000/svg">
<mask id="path-1-outside-1_39_46" maskUnits="userSpaceOnUse" x="0" y="0" width="102" height="102" fill="black">
<rect fill="white" width="102" height="102"/>
<path fill-rule="evenodd" clip-rule="evenodd" d="M51 11C53.7614 11 56 8.76141 56 6C56 3.23859 53.7614 1 51 1C48.2386 1 46 3.23859 46 6C46 8.76141 48.2386 11 51 11ZM34.1005 56C35.8823 56 36.7746 58.1543 35.5147 59.4142L27.6655 67.2634C26.8844 68.0444 26.8844 69.3108 27.6655 70.0918L31.9081 74.3345C32.6892 75.1155 33.9555 75.1155 34.7365 74.3345L42.5858 66.4852C43.8457 65.2253 46 66.1176 46 67.8994V79C46 80.1046 46.8954 81 48 81H54C55.1046 81 56 80.1046 56 79V67.8995C56 66.1177 58.1543 65.2253 59.4142 66.4853L67.2635 74.3345C68.0445 75.1156 69.3108 75.1156 70.0919 74.3345L74.3345 70.0919C75.1156 69.3108 75.1156 68.0445 74.3345 67.2634L66.4853 59.4142C65.2253 58.1543 66.1177 56 67.8995 56H79C80.1046 56 81 55.1045 81 54V48C81 46.8954 80.1046 46 79 46H67.8995C66.1177 46 65.2253 43.8457 66.4853 42.5858L74.3345 34.7365C75.1156 33.9554 75.1156 32.6891 74.3345 31.9081L70.0919 27.6654C69.3108 26.8844 68.0445 26.8844 67.2635 27.6654L59.4142 35.5147C58.1543 36.7746 56 35.8823 56 34.1005V23C56 21.8954 55.1046 21 54 21H48C46.8954 21 46 21.8954 46 23V34.1005C46 35.8823 43.8457 36.7746 42.5858 35.5147L34.7365 27.6655C33.9555 26.8844 32.6892 26.8844 31.9081 27.6655L27.6655 31.9081C26.8844 32.6891 26.8844 33.9555 27.6655 34.7365L35.5147 42.5858C36.7746 43.8457 35.8823 46 34.1005 46H23C21.8954 46 21 46.8954 21 48V54C21 55.1045 21.8954 56 23 56H34.1005ZM56 96C56 98.7614 53.7614 101 51 101C48.2386 101 46 98.7614 46 96C46 93.2386 48.2386 91 51 91C53.7614 91 56 93.2386 56 96ZM22.7157 22.7157C24.6683 20.7631 24.6683 17.5973 22.7157 15.6446C20.7631 13.692 17.5973 13.692 15.6447 15.6446C13.692 17.5973 13.692 20.7631 15.6447 22.7157C17.5973 24.6683 20.7631 24.6683 22.7157 22.7157ZM86.3553 79.2842C88.308 81.2369 88.308 84.4027 86.3553 86.3553C84.4027 88.3079 81.2369 88.3079 79.2843 86.3553C77.3316 84.4027 77.3316 81.2369 79.2843 79.2842C81.2369 77.3316 84.4027 77.3316 86.3553 79.2842ZM6 46C8.76142 46 11 48.2385 11 51C11 53.7614 8.76142 56 6 56C3.23858 56 1 53.7614 1 51C1 48.2385 3.23858 46 6 46ZM101 51C101 48.2385 98.7614 46 96 46C93.2386 46 91 48.2385 91 51C91 53.7614 93.2386 56 96 56C98.7614 56 101 53.7614 101 51ZM79.2843 22.7157C81.2369 24.6683 84.4027 24.6683 86.3553 22.7157C88.308 20.7631 88.308 17.5972 86.3553 15.6446C84.4027 13.692 81.2369 13.692 79.2843 15.6446C77.3317 17.5972 77.3317 20.7631 79.2843 22.7157ZM22.7157 86.3553C20.7631 88.3079 17.5973 88.3079 15.6447 86.3553C13.692 84.4027 13.692 81.2368 15.6447 79.2842C17.5973 77.3316 20.7631 77.3316 22.7157 79.2842C24.6684 81.2368 24.6684 84.4027 22.7157 86.3553Z"/>
</mask>
<path d="M86.3553 22.7157L85.6482 22.0086L85.6482 22.0086L86.3553 22.7157ZM79.2843 22.7157L79.9914 22.0086L79.9914 22.0086L79.2843 22.7157ZM15.6447 86.3553L14.9376 87.0624L14.9376 87.0624L15.6447 86.3553ZM22.7157 86.3553L22.0086 85.6482L22.0086 85.6482L22.7157 86.3553ZM15.6447 79.2842L14.9376 78.5771L14.9376 78.5771L15.6447 79.2842ZM22.7157 79.2842L23.4228 78.5771L23.4228 78.5771L22.7157 79.2842ZM35.5147 42.5858L34.8076 43.2929L35.5147 42.5858ZM27.6655 34.7365L26.9584 35.4436L27.6655 34.7365ZM34.7365 27.6655L35.4436 26.9583L34.7365 27.6655ZM70.0919 27.6654L70.799 26.9583L70.0919 27.6654ZM67.2635 27.6654L66.5564 26.9583L67.2635 27.6654ZM74.3345 31.9081L73.6274 32.6152L74.3345 31.9081ZM66.4853 59.4142L67.1924 58.7071L66.4853 59.4142ZM74.3345 67.2634L73.6274 67.9705L74.3345 67.2634ZM42.5858 66.4852L43.2929 67.1923L42.5858 66.4852ZM31.9081 74.3345L32.6152 73.6274L31.9081 74.3345ZM34.7365 74.3345L34.0294 73.6274L34.7365 74.3345ZM35.5147 59.4142L34.8076 58.7071L35.5147 59.4142ZM27.6655 67.2634L26.9584 66.5563L27.6655 67.2634ZM27.6655 70.0918L26.9584 70.7989L27.6655 70.0918ZM55 6C55 8.20913 53.2091 10 51 10V12C54.3137 12 57 9.3137 57 6H55ZM51 2C53.2091 2 55 3.79087 55 6H57C57 2.6863 54.3137 0 51 0V2ZM47 6C47 3.79087 48.7909 2 51 2V0C47.6863 0 45 2.6863 45 6H47ZM51 10C48.7909 10 47 8.20913 47 6H45C45 9.3137 47.6863 12 51 12V10ZM28.3726 67.9705L36.2218 60.1213L34.8076 58.7071L26.9584 66.5563L28.3726 67.9705ZM32.6152 73.6274L28.3726 69.3847L26.9584 70.7989L31.201 75.0416L32.6152 73.6274ZM41.8787 65.7781L34.0294 73.6274L35.4437 75.0416L43.2929 67.1923L41.8787 65.7781ZM45 67.8994V79H47V67.8994H45ZM48 82H54V80H48V82ZM57 79V67.8995H55V79H57ZM58.7071 67.1924L66.5563 75.0416L67.9706 73.6274L60.1213 65.7782L58.7071 67.1924ZM70.799 75.0416L75.0416 70.799L73.6274 69.3848L69.3848 73.6274L70.799 75.0416ZM75.0416 66.5563L67.1924 58.7071L65.7782 60.1213L73.6274 67.9705L75.0416 66.5563ZM67.8995 57H79V55H67.8995V57ZM82 54V48H80V54H82ZM79 45H67.8995V47H79V45ZM73.6274 34.0294L65.7782 41.8786L67.1924 43.2929L75.0416 35.4436L73.6274 34.0294ZM69.3848 28.3725L73.6274 32.6152L75.0416 31.201L70.799 26.9583L69.3848 28.3725ZM60.1213 36.2218L67.9706 28.3725L66.5564 26.9583L58.7071 34.8076L60.1213 36.2218ZM57 34.1005V23H55V34.1005H57ZM54 20H48V22H54V20ZM45 23V34.1005H47V23H45ZM43.2929 34.8076L35.4436 26.9583L34.0294 28.3726L41.8787 36.2218L43.2929 34.8076ZM31.201 26.9584L26.9584 31.201L28.3726 32.6152L32.6152 28.3726L31.201 26.9584ZM26.9584 35.4436L34.8076 43.2929L36.2218 41.8786L28.3726 34.0294L26.9584 35.4436ZM34.1005 45H23V47H34.1005V45ZM20 48V54H22V48H20ZM23 57H34.1005V55H23V57ZM51 102C54.3137 102 57 99.3137 57 96H55C55 98.2091 53.2091 100 51 100V102ZM45 96C45 99.3137 47.6863 102 51 102V100C48.7909 100 47 98.2091 47 96H45ZM51 90C47.6863 90 45 92.6863 45 96H47C47 93.7909 48.7909 92 51 92V90ZM57 96C57 92.6863 54.3137 90 51 90V92C53.2091 92 55 93.7909 55 96H57ZM22.0086 16.3517C23.5707 17.9138 23.5707 20.4465 22.0086 22.0086L23.4228 23.4228C25.766 21.0797 25.766 17.2807 23.4228 14.9375L22.0086 16.3517ZM16.3518 16.3517C17.9139 14.7897 20.4465 14.7897 22.0086 16.3517L23.4228 14.9375C21.0797 12.5944 17.2807 12.5944 14.9376 14.9375L16.3518 16.3517ZM16.3518 22.0086C14.7897 20.4465 14.7897 17.9138 16.3518 16.3517L14.9376 14.9375C12.5944 17.2807 12.5944 21.0797 14.9376 23.4228L16.3518 22.0086ZM22.0086 22.0086C20.4465 23.5707 17.9139 23.5707 16.3518 22.0086L14.9376 23.4228C17.2807 25.766 21.0797 25.766 23.4228 23.4228L22.0086 22.0086ZM87.0624 87.0624C89.4056 84.7193 89.4056 80.9203 87.0624 78.5771L85.6482 79.9914C87.2103 81.5535 87.2103 84.0861 85.6482 85.6482L87.0624 87.0624ZM78.5772 87.0624C80.9203 89.4056 84.7193 89.4056 87.0624 87.0624L85.6482 85.6482C84.0861 87.2103 81.5535 87.2103 79.9914 85.6482L78.5772 87.0624ZM78.5772 78.5771C76.234 80.9203 76.234 84.7193 78.5772 87.0624L79.9914 85.6482C78.4293 84.0861 78.4293 81.5535 79.9914 79.9914L78.5772 78.5771ZM87.0624 78.5771C84.7193 76.234 80.9203 76.234 78.5772 78.5771L79.9914 79.9914C81.5535 78.4293 84.0861 78.4293 85.6482 79.9914L87.0624 78.5771ZM12 51C12 47.6863 9.31371 45 6 45V47C8.20914 47 10 48.7908 10 51H12ZM6 57C9.31371 57 12 54.3137 12 51H10C10 53.2091 8.20914 55 6 55V57ZM0 51C0 54.3137 2.68629 57 6 57V55C3.79086 55 2 53.2091 2 51H0ZM6 45C2.68629 45 0 47.6863 0 51H2C2 48.7908 3.79086 47 6 47V45ZM96 47C98.2091 47 100 48.7908 100 51H102C102 47.6863 99.3137 45 96 45V47ZM92 51C92 48.7908 93.7909 47 96 47V45C92.6863 45 90 47.6863 90 51H92ZM96 55C93.7909 55 92 53.2091 92 51H90C90 54.3137 92.6863 57 96 57V55ZM100 51C100 53.2091 98.2091 55 96 55V57C99.3137 57 102 54.3137 102 51H100ZM85.6482 22.0086C84.0861 23.5707 81.5535 23.5707 79.9914 22.0086L78.5772 23.4228C80.9203 25.7659 84.7193 25.7659 87.0624 23.4228L85.6482 22.0086ZM85.6482 16.3517C87.2103 17.9138 87.2103 20.4465 85.6482 22.0086L87.0624 23.4228C89.4056 21.0796 89.4056 17.2806 87.0624 14.9375L85.6482 16.3517ZM79.9914 16.3517C81.5535 14.7896 84.0861 14.7896 85.6482 16.3517L87.0624 14.9375C84.7193 12.5944 80.9203 12.5944 78.5772 14.9375L79.9914 16.3517ZM79.9914 22.0086C78.4293 20.4465 78.4293 17.9138 79.9914 16.3517L78.5772 14.9375C76.234 17.2806 76.234 21.0796 78.5772 23.4228L79.9914 22.0086ZM14.9376 87.0624C17.2807 89.4055 21.0797 89.4055 23.4228 87.0624L22.0086 85.6482C20.4465 87.2103 17.9139 87.2103 16.3518 85.6482L14.9376 87.0624ZM14.9376 78.5771C12.5944 80.9202 12.5944 84.7192 14.9376 87.0624L16.3518 85.6482C14.7897 84.0861 14.7897 81.5534 16.3518 79.9913L14.9376 78.5771ZM23.4228 78.5771C21.0797 76.234 17.2807 76.234 14.9376 78.5771L16.3518 79.9913C17.9139 78.4292 20.4465 78.4292 22.0086 79.9913L23.4228 78.5771ZM23.4228 87.0624C25.766 84.7192 25.766 80.9202 23.4228 78.5771L22.0086 79.9913C23.5707 81.5534 23.5707 84.0861 22.0086 85.6482L23.4228 87.0624ZM20 54C20 55.6568 21.3431 57 23 57V55C22.4477 55 22 54.5523 22 54H20ZM23 45C21.3431 45 20 46.3431 20 48H22C22 47.4477 22.4477 47 23 47V45ZM34.8076 43.2929C35.4376 43.9228 34.9914 45 34.1005 45V47C36.7732 47 38.1117 43.7685 36.2218 41.8786L34.8076 43.2929ZM26.9584 31.201C25.7868 32.3726 25.7868 34.2721 26.9584 35.4436L28.3726 34.0294C27.9821 33.6389 27.9821 33.0057 28.3726 32.6152L26.9584 31.201ZM35.4436 26.9583C34.2721 25.7868 32.3726 25.7868 31.201 26.9584L32.6152 28.3726C33.0057 27.982 33.6389 27.982 34.0294 28.3726L35.4436 26.9583ZM45 34.1005C45 34.9914 43.9229 35.4376 43.2929 34.8076L41.8787 36.2218C43.7686 38.1117 47 36.7732 47 34.1005H45ZM48 20C46.3431 20 45 21.3431 45 23H47C47 22.4477 47.4477 22 48 22V20ZM57 23C57 21.3431 55.6569 20 54 20V22C54.5523 22 55 22.4477 55 23H57ZM58.7071 34.8076C58.0771 35.4375 57 34.9914 57 34.1005H55C55 36.7732 58.2314 38.1117 60.1213 36.2218L58.7071 34.8076ZM70.799 26.9583C69.6274 25.7867 67.7279 25.7867 66.5564 26.9583L67.9706 28.3725C68.3611 27.982 68.9943 27.982 69.3848 28.3725L70.799 26.9583ZM75.0416 35.4436C76.2132 34.272 76.2132 32.3725 75.0416 31.201L73.6274 32.6152C74.0179 33.0057 74.0179 33.6389 73.6274 34.0294L75.0416 35.4436ZM67.8995 45C67.0086 45 66.5624 43.9228 67.1924 43.2929L65.7782 41.8786C63.8883 43.7685 65.2268 47 67.8995 47V45ZM82 48C82 46.3431 80.6569 45 79 45V47C79.5523 47 80 47.4477 80 48H82ZM79 57C80.6569 57 82 55.6568 82 54H80C80 54.5523 79.5523 55 79 55V57ZM67.1924 58.7071C66.5624 58.0771 67.0086 57 67.8995 57V55C65.2268 55 63.8883 58.2314 65.7782 60.1213L67.1924 58.7071ZM75.0416 70.799C76.2132 69.6274 76.2132 67.7279 75.0416 66.5563L73.6274 67.9705C74.0179 68.3611 74.0179 68.9942 73.6274 69.3848L75.0416 70.799ZM66.5563 75.0416C67.7279 76.2132 69.6274 76.2132 70.799 75.0416L69.3848 73.6274C68.9942 74.0179 68.3611 74.0179 67.9706 73.6274L66.5563 75.0416ZM57 67.8995C57 67.0086 58.0771 66.5624 58.7071 67.1924L60.1213 65.7782C58.2314 63.8883 55 65.2268 55 67.8995H57ZM54 82C55.6569 82 57 80.6569 57 79H55C55 79.5523 54.5523 80 54 80V82ZM45 79C45 80.6568 46.3431 82 48 82V80C47.4477 80 47 79.5523 47 79H45ZM43.2929 67.1923C43.9229 66.5624 45 67.0085 45 67.8994H47C47 65.2267 43.7686 63.8882 41.8787 65.7781L43.2929 67.1923ZM31.201 75.0416C32.3726 76.2131 34.2721 76.2131 35.4437 75.0416L34.0294 73.6274C33.6389 74.0179 33.0058 74.0179 32.6152 73.6274L31.201 75.0416ZM36.2218 60.1213C38.1117 58.2314 36.7732 55 34.1005 55V57C34.9914 57 35.4376 58.0771 34.8076 58.7071L36.2218 60.1213ZM26.9584 66.5563C25.7868 67.7279 25.7868 69.6274 26.9584 70.7989L28.3726 69.3847C27.9821 68.9942 27.9821 68.361 28.3726 67.9705L26.9584 66.5563Z" fill="#D2C7E4" mask="url(#path-1-outside-1_39_46)"/>
</svg>
