<svg width="3158" height="781" viewBox="0 0 3158 781" fill="none" xmlns="http://www.w3.org/2000/svg">
<path d="M631.748 527.326L572.393 487.538C467.996 417.558 328.862 498.668 338.32 623.994C344.319 703.473 411.196 764.522 490.891 763.268L2768.95 727.435C2917.38 725.101 3003.83 558.846 2920.5 436L2835.09 269.584C2788.51 178.835 2664.21 165.518 2599.46 244.342C2551.37 302.897 2465.72 313.266 2405.04 267.882L2323.52 206.904C2224.32 132.713 2085.62 142.986 1998.44 230.979L1833.93 397.017C1703.8 528.351 1501.41 555.25 1341.5 462.462L1225.65 395.239C1121.8 334.985 989.673 358.143 912.512 450.121L876.971 492.488C816.122 565.022 710.391 580.042 631.748 527.326Z" fill="#7043BA" stroke="#7043BA"/>
<path d="M416.786 566.557L358.962 546.298C258.295 511.029 164.964 614.573 210.46 711.05C230.31 753.143 272.668 780 319.207 780H2758.75C2782.58 780 2806.36 777.912 2829.82 773.761L3060.72 732.909C3101.24 725.74 3132.25 692.824 3136.99 651.948C3145.75 576.448 3031.06 590.062 2988.53 527.07C2978.82 512.699 2893.33 471.625 2807.11 433.086C2724.42 396.13 2628.62 406.894 2554.47 458.89C2470.65 517.671 2360.4 522.7 2271.57 471.794L2174.76 416.311C2069.72 356.118 1944.52 341.893 1828.65 376.989L1417.29 501.597C1303 536.216 1180.15 529.294 1070.48 482.056L919.773 417.147C818.327 373.454 700.448 396.74 623.236 475.728L569.35 530.853C529.744 571.371 470.259 585.291 416.786 566.557Z" fill="#1E1729" fill-opacity="0.8" stroke="#7043BA"/>
<path d="M2759.35 780H346.679C199.389 780 75.6304 669.3 59.2741 522.921C52.2828 460.354 65.8998 397.214 98.0573 343.09L105.318 330.87C193.545 182.375 380.993 126.489 536.133 202.425L563.028 215.59C671.515 268.691 799.275 264.526 904.072 204.47L1001.33 148.736C1163.53 55.782 1360.79 47.4398 1530.26 126.367L1607.78 162.469C1745.85 226.771 1902.13 240.508 2049.3 201.279L2324.26 127.988C2373.14 114.959 2425.27 128.421 2461.74 163.486C2504.95 205.046 2569.33 215.626 2623.58 190.081L2711.55 148.651C2768.69 121.743 2833.47 115.779 2894.56 131.801C3012.95 162.85 3095.5 269.841 3095.5 392.232V443.854C3095.5 629.502 2945 780 2759.35 780Z" fill="#7043BA" fill-opacity="0.8" stroke="#7043BA"/>
<path d="M2678.45 780H208.99C107.729 780 23.8339 701.44 17.1894 600.397L8.08055 461.88C4.07588 400.982 60.3485 353.71 119.642 368.163C145.259 374.407 172.325 369.151 193.742 353.772L336.204 251.482C430.978 183.431 562.126 199.575 637.569 288.578C701.841 364.403 808.412 388.773 899.251 348.416L918.881 339.695C1000.73 303.333 1095.71 313.038 1168.52 365.201L1196.33 385.125C1303.75 462.09 1447.98 463.121 1556.49 387.7L1590.71 363.916C1667.41 310.605 1761.38 288.154 1853.89 301.037L1930.15 311.657C2057.29 329.362 2186.68 303.494 2297.24 238.267L2461.14 141.57C2569.47 77.6611 2702.89 73.3453 2815.12 130.12L2831.5 138.405C2945.58 196.118 3017.5 313.097 3017.5 440.948C3017.5 628.201 2865.7 780 2678.45 780Z" fill="#7043BA" fill-opacity="0.5" stroke="#7043BA"/>
</svg>
